<mxfile host="app.diagrams.net" modified="2023-07-29T10:46:41.640Z" agent="Mozilla/5.0 (Windows NT 10.0; Win64; x64) AppleWebKit/537.36 (KHTML, like Gecko) Chrome/115.0.0.0 Safari/537.36 Edg/115.0.1901.183" version="21.6.6" etag="qcLd2Gn5rApLzUaFBLLh" type="github">
  <diagram name="Page-1" id="6w-F-pCNxjTPMvaGq_pz">
    <mxGraphModel>
      <root>
        <mxCell id="0" />
        <mxCell id="1" parent="0" />
      </root>
    </mxGraphModel>
  </diagram>
</mxfile>
